<svg width="139" height="130" viewBox="0 0 139 130" fill="none" xmlns="http://www.w3.org/2000/svg">
<g clip-path="url(#clip0_525_2737)">
<path d="M138.848 56.184C137.303 40.6599 125.797 21.2467 106.782 14.9331C97.4553 12.0413 101.728 16.4165 101.728 16.4165V16.4181C115.14 27.5191 123.726 44.5421 123.726 63.6291C123.726 64.1916 123.719 64.7541 123.703 65.3142C123.719 65.8444 123.726 66.3766 123.726 66.9086C123.726 98.5473 97.3641 124.197 64.8468 124.197C64.8468 124.197 64.8468 124.197 64.8452 124.197H64.8447C32.3256 124.195 5.96737 98.5471 5.96737 66.9084C5.96737 66.3764 5.97596 65.8443 5.99092 65.3154C5.9758 64.755 5.96737 64.1926 5.96737 63.629C5.96737 38.8138 20.4746 17.4848 41.2406 8.125C17.0989 17.3094 0 40.1653 0 66.9084C0 101.754 29.0316 130.003 64.8466 130.003C96.9855 130.003 123.661 107.255 128.798 77.4058V77.4067C128.798 77.4067 140.457 72.3691 138.848 56.184Z" fill="#5E9920"/>
<path fill-rule="evenodd" clip-rule="evenodd" d="M13.573 51.8935C17.849 35.1223 29.4662 22.1814 44.0292 15.7251C44.034 15.724 44.0356 15.7218 44.0405 15.7197C44.0512 15.7143 44.0618 15.71 44.0738 15.7042C44.077 15.7031 44.0813 15.7021 44.0878 15.6993C44.5497 15.4907 44.9941 15.4983 45.0895 15.724C45.1904 15.9583 44.8797 16.3347 44.3993 16.5661L44.3956 16.5677C31.8433 23.2277 21.8751 35.3323 17.9611 50.6762C17.8667 51.0501 17.778 51.4238 17.6918 51.7981C17.5942 52.1511 17.4969 52.5072 17.4042 52.8649C10.6207 79.4862 26.3893 106.452 52.6258 113.094C78.8623 119.736 105.631 103.538 112.418 76.9153C117.53 56.8637 109.845 36.6222 94.5339 25.011C94.2426 24.8431 92.0699 22.9347 89.5345 24.0774C89.2269 24.2138 88.8949 24.2704 88.5801 24.3886C85.6411 25.4912 82.8316 25.2805 80.1712 23.6769C77.5209 22.0797 74.8112 20.5733 72.2574 18.8258C68.9957 16.5932 65.8662 14.1619 62.688 11.8021C62.3499 11.5518 62.0811 11.207 61.7801 10.9054C61.8084 10.8472 61.8369 10.7904 61.8659 10.7343C62.1171 10.806 62.3814 10.8434 62.6149 10.9557C64.1069 11.6643 65.5958 12.3803 67.0746 13.1123C70.1756 14.6454 73.2615 16.2089 76.3754 17.7136C77.1018 18.0649 77.9095 18.2478 78.6891 18.4713C78.841 18.514 79.0434 18.3836 79.2215 18.3322C79.1661 18.1504 79.1448 17.9472 79.052 17.7937C78.9393 17.6128 78.7782 17.4531 78.611 17.3253C77.8374 16.7285 77.0902 16.0906 76.2721 15.5708C73.3607 13.7228 70.4163 11.932 67.5004 10.0893C66.351 9.36159 65.2416 8.56262 64.1269 7.77983C63.9553 7.65801 63.8442 7.44562 63.7069 7.27495C63.9472 7.19167 64.1255 7.19056 64.2745 7.2567C65.3381 7.7305 66.4112 8.18336 67.4488 8.70586C70.9775 10.471 74.482 12.2875 78.0255 14.0269C78.8481 14.4301 79.7798 14.6135 80.6741 14.8557C80.8308 14.8963 81.1115 14.7702 81.2141 14.6279C81.2823 14.5305 81.1926 14.2295 81.0846 14.0964C80.8303 13.7739 80.561 13.4392 80.231 13.2157C78.2447 11.8773 76.2617 10.5271 74.2336 9.26087C71.7511 7.71496 69.2239 6.25581 66.7287 4.7375C66.3198 4.48783 65.9733 4.12539 65.5993 3.81465C65.6432 3.73598 65.6871 3.65619 65.7296 3.5772C66.2302 3.7428 66.7539 3.85732 67.2278 4.08478C70.0481 5.44177 72.8394 6.85777 75.6693 8.18971C77.775 9.18172 79.9149 10.0971 82.0639 10.9971C82.3911 11.135 82.8274 11.0041 83.2149 10.9981C83.0223 10.6564 82.9046 10.2051 82.6208 9.98862C81.3352 9.00692 80.0457 8.01649 78.678 7.16518C75.371 5.10661 72.0155 3.13021 68.6899 1.10685C68.287 0.863527 67.9297 0.542163 67.5518 0.257123C67.5857 0.171627 67.6179 0.085972 67.6489 0C68.1635 0.0989789 68.7076 0.12293 69.1873 0.308516C71.4667 1.18981 73.7605 2.04049 75.9924 3.03614C80.4621 5.03507 84.8535 7.19849 89.0254 9.80858C90.829 10.938 91.9429 12.54 92.4677 14.6446C92.706 15.5969 93.0472 16.5225 93.2478 17.4872C93.6718 19.486 96.769 21.6821 96.769 21.6821C113.415 34.2086 121.789 56.1511 116.25 77.8835C108.915 106.654 79.9873 124.158 51.6344 116.981C23.2798 109.805 6.24045 80.666 13.573 51.8935Z" fill="#5E9920"/>
<path d="M71.3594 48.1313C76.8943 55.71 82.0763 65.5804 82.0263 78.3471C81.9989 85.3548 79.976 91.2559 76.1796 95.4349C77.5077 94.4264 78.8196 93.2169 80.096 91.7827C97.796 71.8973 86.3972 45.5466 94.2324 44.5653C86.9575 43.3627 78.7746 44.647 71.3594 48.1313Z" fill="#5E9920"/>
<path d="M57.0953 29.2969C41.1802 39.1818 30.9635 63.607 41.112 84.5302C46.0808 94.7757 54.9054 99.6635 62.8696 99.3106C55.0106 83.7073 53.7057 66.0724 53.7057 66.0724C58.9621 84.5087 64.2579 94.1402 67.2449 98.5527C74.2528 96.3733 79.7248 89.6051 79.7689 78.3325C79.8816 49.2084 51.3635 35.757 57.0953 29.2969Z" fill="#5E9920"/>
</g>
<defs>
<clipPath id="clip0_525_2737">
<rect width="139" height="130" fill="white"/>
</clipPath>
</defs>
</svg>
