<svg width="24" height="25" viewBox="0 0 24 25" fill="none" xmlns="http://www.w3.org/2000/svg">
<path d="M16.5 7.03502C15.0174 5.88445 13.3677 5.20312 11.5 5.20312C7.5 5.20312 4.5 8.32812 2 12.4948C3.33267 14.7159 4.80743 16.641 6.5 17.9546" stroke="#808080" stroke-width="1.4" stroke-linecap="round" stroke-linejoin="round"/>
<path d="M9.5 19.7862C15 20.307 19 16.6612 21.5 12.4945C20.1673 10.2734 19 9.36953 19 9.36953" stroke="#808080" stroke-width="1.4" stroke-linecap="round" stroke-linejoin="round"/>
<path d="M9.87823 14.7097C9.59965 14.4195 9.37867 14.075 9.22791 13.6959C9.07714 13.3167 8.99955 12.9104 8.99955 12.5C8.99955 12.0896 9.07714 11.6833 9.22791 11.3041C9.37867 10.925 9.59965 10.5805 9.87823 10.2903C10.1568 10.0001 10.4875 9.76992 10.8515 9.61288C11.2155 9.45583 11.6056 9.375 11.9995 9.375C12.3935 9.375 12.7836 9.45583 13.1476 9.61288C13.5116 9.76992 13.8423 10.0001 14.1209 10.2903L11.9995 12.5L9.87823 14.7097Z" stroke="#808080" stroke-width="1.4"/>
<line x1="0.7" y1="-0.7" x2="20.9597" y2="-0.7" transform="matrix(-0.692532 0.721387 -0.692532 -0.721387 19 4.16406)" stroke="#808080" stroke-width="1.4" stroke-linecap="round"/>
<path d="M15.3633 13.1589C15.3633 13.1589 15.4266 14.1346 14.5532 15.0443C13.6799 15.9541 12.7432 15.8881 12.7432 15.8881" stroke="#808080" stroke-width="1.4" stroke-linecap="round"/>
</svg>
