<svg width="40" height="40" viewBox="0 0 40 40" fill="none" xmlns="http://www.w3.org/2000/svg">
<path d="M18.6677 19.7914V24.4186H17.1992V12.9922H21.0921C22.0787 12.9922 22.92 13.3211 23.6084 13.9788C24.312 14.6366 24.6638 15.4396 24.6638 16.388C24.6638 17.3593 24.312 18.1623 23.6084 18.8124C22.9277 19.4625 22.0864 19.7837 21.0921 19.7837H18.6677V19.7914ZM18.6677 14.3995V18.3841H21.1227C21.704 18.3841 22.1935 18.1853 22.5759 17.7952C22.9659 17.4052 23.1648 16.931 23.1648 16.3956C23.1648 15.8679 22.9659 15.4013 22.5759 15.0113C22.1934 14.6059 21.7116 14.4071 21.1227 14.4071H18.6677V14.3995Z" fill="#383E41"/>
<path d="M28.5048 16.3438C29.5909 16.3438 30.4475 16.6344 31.0746 17.2156C31.7018 17.7969 32.0153 18.5923 32.0153 19.6019V24.4202H30.6157V23.3342H30.5545C29.9503 24.2291 29.1396 24.6727 28.1301 24.6727C27.2659 24.6727 26.5469 24.4202 25.9656 23.9078C25.3844 23.3954 25.0938 22.7605 25.0938 21.9958C25.0938 21.1851 25.3997 20.5427 26.0116 20.0684C26.6234 19.5866 27.4418 19.3495 28.459 19.3495C29.3309 19.3495 30.0498 19.5102 30.6081 19.8313V19.4948C30.6081 18.9824 30.4093 18.5541 30.0039 18.1947C29.5985 17.8352 29.1244 17.6593 28.5813 17.6593C27.763 17.6593 27.1129 18.0034 26.6387 18.6995L25.3461 17.8888C26.0574 16.8562 27.1129 16.3438 28.5048 16.3438ZM26.6081 22.0187C26.6081 22.4011 26.7687 22.7223 27.0976 22.9747C27.4188 23.2271 27.8012 23.3571 28.2372 23.3571C28.8567 23.3571 29.4073 23.1277 29.8892 22.6687C30.3711 22.2098 30.6158 21.6745 30.6158 21.055C30.1569 20.6955 29.5221 20.512 28.7038 20.512C28.1072 20.512 27.6101 20.6573 27.2123 20.9402C26.807 21.2385 26.6081 21.598 26.6081 22.0187Z" fill="#383E41"/>
<path d="M40.0001 16.5938L35.1052 27.8519H33.5909L35.4111 23.913L32.1836 16.5938H33.782L36.1071 22.2075H36.1377L38.4016 16.5938H40.0001Z" fill="#383E41"/>
<path d="M12.706 17.4766H6.55078V20.0005L10.0957 20.0012C9.95195 20.841 9.48922 21.5569 8.78023 22.0341V22.0346C8.78047 22.0345 8.78078 22.0343 8.78102 22.0341L8.71719 23.5427L10.8912 23.6709C10.8909 23.6711 10.8905 23.6714 10.8903 23.6716C12.1224 22.5313 12.8284 20.8456 12.8284 18.8541C12.8284 18.3752 12.7855 17.9171 12.706 17.4766Z" fill="#0085F7"/>
<path d="M8.77906 22.035C8.77883 22.0352 8.77852 22.0353 8.77828 22.0355C8.19102 22.4313 7.43484 22.6629 6.55039 22.6629C4.84101 22.6629 3.39094 21.5111 2.87164 19.9585H2.87141C2.87148 19.9588 2.87156 19.9591 2.87164 19.9593L1.05672 19.6719L0.695312 21.6477C1.77383 23.7874 3.99008 25.2556 6.55047 25.2556C8.31977 25.2556 9.80625 24.6739 10.8884 23.6724C10.8888 23.6722 10.8891 23.672 10.8893 23.6716L8.77906 22.035Z" fill="#00A94B"/>
<path d="M2.66844 18.7079C2.66844 18.272 2.74109 17.8505 2.87344 17.4544L2.30672 15.7656H0.696719C0.250859 16.6505 0 17.6494 0 18.7079C0 19.7664 0.251641 20.7652 0.696719 21.6502L0.697031 21.6499L2.87344 19.9614C2.87336 19.9612 2.87328 19.9609 2.8732 19.9606C2.74102 19.5648 2.66844 19.1436 2.66844 18.7079Z" fill="#FFBB00"/>
<path d="M6.55078 12.1562C3.99094 12.1562 1.77375 13.6247 0.695312 15.7647L2.87195 17.4534C3.39125 15.9009 4.84133 14.7491 6.5507 14.7491C7.51664 14.7491 8.38172 15.0818 9.06469 15.7319L10.9347 13.8634C9.79898 12.8055 8.31828 12.1562 6.55078 12.1562Z" fill="#FF4031"/>
</svg>
